<?xml version="1.0" standalone="yes"?>
<svg xmlns="http://www.w3.org/2000/svg" width="25" height="28">
<path style="fill:#1f1f1f; stroke:none;" d="M0 0L0 28L25 28L25 0L0 0z"/>
<path style="fill:#42701a; stroke:none;" d="M12 6L11 8L12 6z"/>
<path style="fill:#fbfa04; stroke:none;" d="M12 7L15 12L3 11L3 17L15 16L11 21C16.4355 22.1969 19.3204 18.6362 23 15C20.2753 10.6473 17.5695 6.21097 12 7z"/>
<path style="fill:#86561f; stroke:none;" d="M16 6L17 7L16 6M17 7L18 8L17 7z"/>
<path style="fill:#9bc40d; stroke:none;" d="M11 8L12 9L11 8M12 9L13 10L12 9z"/>
<path style="fill:#42701a; stroke:none;" d="M3 10L4 11L3 10z"/>
<path style="fill:#86561f; stroke:none;" d="M4 10L5 11L4 10z"/>
<path style="fill:#9bc40d; stroke:none;" d="M13 10L15 12L13 10M9.66667 11.3333L10.3333 11.6667L9.66667 11.3333z"/>
<path style="fill:#86561f; stroke:none;" d="M11.6667 11.3333L12.3333 11.6667L11.6667 11.3333z"/>
<path style="fill:#1f1f1f; stroke:none;" d="M13 11L14 12L13 11z"/>
<path style="fill:#9bc40d; stroke:none;" d="M20 11L21 12L20 11M21 12L22 13L21 12M22 13L23 14L22 13z"/>
<path style="fill:#86561f; stroke:none;" d="M22 15L23 16L22 15z"/>
<path style="fill:#9bc40d; stroke:none;" d="M9.66667 16.3333L10.3333 16.6667L9.66667 16.3333z"/>
<path style="fill:#86561f; stroke:none;" d="M11 16L12 17L11 16z"/>
<path style="fill:#42701a; stroke:none;" d="M12 16L13 17L12 16z"/>
<path style="fill:#1f1f1f; stroke:none;" d="M13 16L14 17L13 16z"/>
<path style="fill:#9bc40d; stroke:none;" d="M14 16L15 17L14 16z"/>
<path style="fill:#86561f; stroke:none;" d="M21 16L22 17L21 16z"/>
<path style="fill:#42701a; stroke:none;" d="M3 17L4 18L3 17z"/>
<path style="fill:#86561f; stroke:none;" d="M4 17L5 18L4 17z"/>
<path style="fill:#9bc40d; stroke:none;" d="M13 17L14 18L13 17z"/>
<path style="fill:#86561f; stroke:none;" d="M20 17L21 18L20 17z"/>
<path style="fill:#9bc40d; stroke:none;" d="M12 18L13 19L12 18z"/>
<path style="fill:#86561f; stroke:none;" d="M19 18L20 19L19 18z"/>
<path style="fill:#9bc40d; stroke:none;" d="M11 19L12 20L11 19z"/>
<path style="fill:#86561f; stroke:none;" d="M18 19L19 20L18 19z"/>
<path style="fill:#42701a; stroke:none;" d="M10 20L11 21L10 20z"/>
<path style="fill:#86561f; stroke:none;" d="M17 20L18 21L17 20z"/>
<path style="fill:#42701a; stroke:none;" d="M11 21L12 22L11 21z"/>
<path style="fill:#86561f; stroke:none;" d="M16 21L17 22L16 21z"/>
</svg>
