<?xml version="1.0" standalone="yes"?>
<svg xmlns="http://www.w3.org/2000/svg" width="28" height="29">
<path style="fill:#2d2c2e; stroke:none;" d="M0 0L0 29L28 29L28 0L0 0z"/>
<path style="fill:#325590; stroke:none;" d="M11 5L12 6L11 5z"/>
<path style="fill:#9da29d; stroke:none;" d="M10 6L8 9L9 7L6 10L13 10C11.0138 13.0547 8.86489 13.134 6 11L5 11C5.85438 14.9871 9.48947 14 13 14L13 18L6 18L10 22L8 19L11 23L16 21L14 19L21 19L21 18L14 18L14 14L17 17L18 17L18 14L22 14L22 13L18 11L17 11L14 13L21 10C17.8672 6.14757 14.8723 5.06642 10 6z"/>
<path style="fill:#946d45; stroke:none;" d="M15 5L16 6L15 5z"/>
<path style="fill:#568ea1; stroke:none;" d="M9 6L10 7L9 6z"/>
<path style="fill:#325590; stroke:none;" d="M7 7L8 8L7 7z"/>
<path style="fill:#2d2c2e; stroke:none;" d="M9 7L8 9L10 9L9 7z"/>
<path style="fill:#325590; stroke:none;" d="M10 7L11 8L10 7z"/>
<path style="fill:#2d2c2e; stroke:none;" d="M12 7L11 9L13 9L12 7M14 7L14 9L16 9L14 7z"/>
<path style="fill:#568ea1; stroke:none;" d="M15 7L16 8L15 7z"/>
<path style="fill:#946d45; stroke:none;" d="M16 7L17 8L16 7z"/>
<path style="fill:#325590; stroke:none;" d="M17 7L18 8L17 7z"/>
<path style="fill:#946d45; stroke:none;" d="M19 7L20 8L19 7z"/>
<path style="fill:#325590; stroke:none;" d="M6 8L7 9L6 8z"/>
<path style="fill:#2d2c2e; stroke:none;" d="M17.6667 8.33333L18.3333 8.66667L17.6667 8.33333z"/>
<path style="fill:#946d45; stroke:none;" d="M20 8L21 9L20 8z"/>
<path style="fill:#568ea1; stroke:none;" d="M5 10L6 11L5 10z"/>
<path style="fill:#946d45; stroke:none;" d="M6 10L7 11L6 10z"/>
<path style="fill:#325590; stroke:none;" d="M7.66667 10.3333L8.33333 10.6667L7.66667 10.3333z"/>
<path style="fill:#568ea1; stroke:none;" d="M9 10L9 13L10 13L9 10z"/>
<path style="fill:#325590; stroke:none;" d="M11.6667 10.3333L12.3333 10.6667L11.6667 10.3333M14 10L14 11L17 12L14 10z"/>
<path style="fill:#568ea1; stroke:none;" d="M16 10L17 11L16 10z"/>
<path style="fill:#946d45; stroke:none;" d="M17 10L18 11L17 10z"/>
<path style="fill:#325590; stroke:none;" d="M18.6667 10.3333L19.3333 10.6667L18.6667 10.3333z"/>
<path style="fill:#568ea1; stroke:none;" d="M20 10L21 11L20 10z"/>
<path style="fill:#946d45; stroke:none;" d="M21 10L22 11L21 10z"/>
<path style="fill:#2d2c2e; stroke:none;" d="M6 11L6 13L9 13L9 11L6 11z"/>
<path style="fill:#946d45; stroke:none;" d="M10 11L11 12L10 11z"/>
<path style="fill:#2d2c2e; stroke:none;" d="M10 13L13 11L10 13M14 11L17 13L14 11M18 11L18 13L21 13L21 11L18 11z"/>
<path style="fill:#9da29d; stroke:none;" d="M21 11L22 12L21 11z"/>
<path style="fill:#568ea1; stroke:none;" d="M21 12L22 13L21 12z"/>
<path style="fill:#325590; stroke:none;" d="M4.33333 13.6667L4.66667 14.3333L4.33333 13.6667z"/>
<path style="fill:#946d45; stroke:none;" d="M22.3333 13.6667L22.6667 14.3333L22.3333 13.6667M5 14L6 15L5 14z"/>
<path style="fill:#2d2c2e; stroke:none;" d="M6 14L9 18L9 14L6 14z"/>
<path style="fill:#568ea1; stroke:none;" d="M9 14L9 17L10 17L9 14z"/>
<path style="fill:#946d45; stroke:none;" d="M10 14L11 15L10 14z"/>
<path style="fill:#325590; stroke:none;" d="M11 14L12 15L11 14z"/>
<path style="fill:#2d2c2e; stroke:none;" d="M12 14C10.7024 16.1845 10.7887 16.6934 13 18L12 14M14 14L14 18L17 14L14 14M18 14L18 18L21 14L18 14z"/>
<path style="fill:#568ea1; stroke:none;" d="M21.3333 14.6667L21.6667 15.3333L21.3333 14.6667z"/>
<path style="fill:#9da29d; stroke:none;" d="M5.33333 15.6667L5.66667 16.3333L5.33333 15.6667z"/>
<path style="fill:#946d45; stroke:none;" d="M10.3333 16.6667L10.6667 17.3333L10.3333 16.6667z"/>
<path style="fill:#325590; stroke:none;" d="M16.3333 16.6667L16.6667 17.3333L16.3333 16.6667z"/>
<path style="fill:#9da29d; stroke:none;" d="M21 16L22 17L21 16z"/>
<path style="fill:#568ea1; stroke:none;" d="M5 17L6 18L5 17z"/>
<path style="fill:#946d45; stroke:none;" d="M6 17L7 18L6 17z"/>
<path style="fill:#325590; stroke:none;" d="M9 17L10 18L9 17z"/>
<path style="fill:#946d45; stroke:none;" d="M17 17L18 18L17 17z"/>
<path style="fill:#325590; stroke:none;" d="M20 17L21 18L20 17z"/>
<path style="fill:#946d45; stroke:none;" d="M21 17L22 18L21 17z"/>
<path style="fill:#325590; stroke:none;" d="M6 19L7 20L6 19z"/>
<path style="fill:#2d2c2e; stroke:none;" d="M8 19L10 21L10 19L8 19M11 19L13 21L13 19L11 19M14 19L14 21L16 19L14 19M17 19L17 21L19 19L17 19z"/>
<path style="fill:#568ea1; stroke:none;" d="M19 19L18 21L19 19z"/>
<path style="fill:#946d45; stroke:none;" d="M20 19L21 20L20 19z"/>
<path style="fill:#568ea1; stroke:none;" d="M7 20L8 21L7 20z"/>
<path style="fill:#325590; stroke:none;" d="M10 20L11 21L10 20z"/>
<path style="fill:#568ea1; stroke:none;" d="M15 20L17 22L15 20z"/>
<path style="fill:#946d45; stroke:none;" d="M16 20L17 21L16 20M19 20L20 21L19 20z"/>
<path style="fill:#325590; stroke:none;" d="M8 21L9 22L8 21z"/>
<path style="fill:#946d45; stroke:none;" d="M10 21L11 22L10 21M12 21L13 22L12 21M14 21L15 22L14 21z"/>
<path style="fill:#9da29d; stroke:none;" d="M17 21L18 22L17 21z"/>
<path style="fill:#946d45; stroke:none;" d="M18 21L19 22L18 21z"/>
<path style="fill:#325590; stroke:none;" d="M10 22L11 23L10 22z"/>
<path style="fill:#946d45; stroke:none;" d="M16 22L17 23L16 22z"/>
</svg>
