<?xml version="1.0" standalone="yes"?>
<svg xmlns="http://www.w3.org/2000/svg" width="21" height="26">
<path style="fill:#2d2d2e; stroke:none;" d="M0 0L0 26L21 26L21 0L0 0z"/>
<path style="fill:#5792b9; stroke:none;" d="M6 4L5 6L6 4z"/>
<path style="fill:#c6c8c6; stroke:none;" d="M7 16L4 20L11 20C10.9285 16.2911 13.453 10.4782 12.2029 7.2284C10.9906 4.07653 6.87387 4.0092 5.62191 7.15201C4.49716 9.97548 6.16325 13.3174 7 16z"/>
<path style="fill:#c09f6f; stroke:none;" d="M10 4L11 5L10 4z"/>
<path style="fill:#854c30; stroke:none;" d="M11 4L12 5L11 4M12 5L13 6L12 5z"/>
<path style="fill:#c09f6f; stroke:none;" d="M12 6L13 7L12 6z"/>
<path style="fill:#5792b9; stroke:none;" d="M4 7L4 11L5 11L4 7z"/>
<path style="fill:#854c30; stroke:none;" d="M13 7L13 10L14 10L13 7z"/>
<path style="fill:#c09f6f; stroke:none;" d="M12 11L13 12L12 11z"/>
<path style="fill:#5792b9; stroke:none;" d="M5 12L6 13L5 12z"/>
<path style="fill:#c09f6f; stroke:none;" d="M11 12L12 13L11 12z"/>
<path style="fill:#5792b9; stroke:none;" d="M6 13L6 16L7 16L6 13z"/>
<path style="fill:#c09f6f; stroke:none;" d="M10 14L11 15L10 14z"/>
<path style="fill:#854c30; stroke:none;" d="M11 15L12 16L11 15z"/>
<path style="fill:#5792b9; stroke:none;" d="M4 16L5 17L4 16z"/>
<path style="fill:#c09f6f; stroke:none;" d="M11 16L12 17L11 16z"/>
<path style="fill:#5792b9; stroke:none;" d="M13 16L12 18L13 16z"/>
<path style="fill:#c09f6f; stroke:none;" d="M14 16L16 22L14 20L16 16L14 16z"/>
<path style="fill:#854c30; stroke:none;" d="M16 16L18 18L16 16z"/>
<path style="fill:#5792b9; stroke:none;" d="M3 17L3 20L4 20L3 17z"/>
<path style="fill:#854c30; stroke:none;" d="M11 17L12 18L11 17z"/>
<path style="fill:#c6c8c6; stroke:none;" d="M13 17L14 18L13 17z"/>
<path style="fill:#5792b9; stroke:none;" d="M15 17L16 20L17 20L15 17z"/>
<path style="fill:#c6c8c6; stroke:none;" d="M16 17L17 18L16 17M12 18L14 21L12 18z"/>
<path style="fill:#2d2d2e; stroke:none;" d="M14 18L14 20L16 20L16 18L14 18z"/>
<path style="fill:#c09f6f; stroke:none;" d="M17.3333 18.6667L17.6667 19.3333L17.3333 18.6667z"/>
<path style="fill:#854c30; stroke:none;" d="M5 20L5 21L10 21L5 20z"/>
<path style="fill:#5792b9; stroke:none;" d="M12 20L13 21L12 20z"/>
<path style="fill:#c6c8c6; stroke:none;" d="M16 20L17 21L16 20z"/>
<path style="fill:#854c30; stroke:none;" d="M17 20L18 21L17 20z"/>
<path style="fill:#5792b9; stroke:none;" d="M13 21L14 22L13 21z"/>
<path style="fill:#854c30; stroke:none;" d="M16 21L17 22L16 21z"/>
</svg>
