<?xml version="1.0" standalone="yes"?>
<svg xmlns="http://www.w3.org/2000/svg" width="40" height="44">
<path style="fill:#2c2c2c; stroke:none;" d="M0 0L0 44L40 44L40 0L0 0z"/>
<path style="fill:#7c7c7c; stroke:none;" d="M7 4L7 5L33 5L7 4z"/>
<path style="fill:#5b5b5b; stroke:none;" d="M33 4L34 5L33 4z"/>
<path style="fill:#7c7c7c; stroke:none;" d="M5 5L6 6L5 5z"/>
<path style="fill:#e9e9e9; stroke:none;" d="M6.60339 6.02778C3.52191 8.46836 5 16.5242 5 20C5 23.5547 3.91213 29.4162 6.02778 32.5015C11.6807 40.7454 25.874 39.0684 32.6821 33.7863C36.2014 31.0558 35 24.9279 35 21C35 17.2687 36.4234 9.6983 33.9722 6.6034C31.3615 3.30709 9.84923 3.45703 6.60339 6.02778z"/>
<path style="fill:#7c7c7c; stroke:none;" d="M34 5L35 6L34 5z"/>
<path style="fill:#aaaaaa; stroke:none;" d="M9 9L10 10L9 9z"/>
<path style="fill:#5b5b5b; stroke:none;" d="M10 9L10 10L14 10L10 9M15 9L15 10L19 10L15 9z"/>
<path style="fill:#aaaaaa; stroke:none;" d="M19 9L20 10L19 9M21 9L22 10L21 9z"/>
<path style="fill:#5b5b5b; stroke:none;" d="M22 9L23 10L22 9z"/>
<path style="fill:#aaaaaa; stroke:none;" d="M23 9L24 10L23 9M25 9L26 10L25 9z"/>
<path style="fill:#7c7c7c; stroke:none;" d="M26 9L27 10L26 9z"/>
<path style="fill:#2c2c2c; stroke:none;" d="M25 22L30 22L30 17L29 17L29 21L26 21C26 19.0976 26.2954 8.92062 29 14C29.8699 11.446 27.3666 8.12266 25.5988 11.4776C24.1394 14.2471 25 18.952 25 22z"/>
<path style="fill:#5b5b5b; stroke:none;" d="M28 9L29 10L28 9z"/>
<path style="fill:#aaaaaa; stroke:none;" d="M29 9L30 10L29 9z"/>
<path style="fill:#7c7c7c; stroke:none;" d="M9 10C9 15.3256 7.45711 21.9081 14 23L14 22L10 22L9 10z"/>
<path style="fill:#2c2c2c; stroke:none;" d="M10 10L10 22L14 22L14 21L11 21L14 16L14 15L11 15L14 11L10 10M15 10L15 22L17 22L17 17L20 17L20 10L15 10z"/>
<path style="fill:#7c7c7c; stroke:none;" d="M21 10L22 23L23 23L24 10L23 10L23 22L22 22L21 10z"/>
<path style="fill:#2c2c2c; stroke:none;" d="M22 10L22 22L23 22L22 10z"/>
<path style="fill:#7c7c7c; stroke:none;" d="M11 11L11 15L12 15L11 11z"/>
<path style="fill:#e9e9e9; stroke:none;" d="M17 11L17 16L18 16L17 11z"/>
<path style="fill:#7c7c7c; stroke:none;" d="M18 11L19 12L18 11z"/>
<path style="fill:#aaaaaa; stroke:none;" d="M24 11L24 21L25 21L24 11z"/>
<path style="fill:#7c7c7c; stroke:none;" d="M28 11L28 14L29 14L28 11z"/>
<path style="fill:#aaaaaa; stroke:none;" d="M30 11L31 12L30 11M18 12L18 15L19 15L18 12z"/>
<path style="fill:#7c7c7c; stroke:none;" d="M26 12L26 20L27 20L26 12M30.3333 12.6667L30.6667 13.3333L30.3333 12.6667z"/>
<path style="fill:#aaaaaa; stroke:none;" d="M29 14L30 15L29 14z"/>
<path style="fill:#7c7c7c; stroke:none;" d="M18 15L19 16L18 15z"/>
<path style="fill:#5b5b5b; stroke:none;" d="M12 16L13 17L12 16z"/>
<path style="fill:#7c7c7c; stroke:none;" d="M13 16L14 17L13 16M11 17L11 21L12 21L11 17z"/>
<path style="fill:#5b5b5b; stroke:none;" d="M17 17L18 18L17 17z"/>
<path style="fill:#7c7c7c; stroke:none;" d="M18 17L19 18L18 17z"/>
<path style="fill:#aaaaaa; stroke:none;" d="M19 17L20 18L19 17M28 17L28 20L29 20L28 17z"/>
<path style="fill:#7c7c7c; stroke:none;" d="M30 17L30 21L31 21L30 17z"/>
<path style="fill:#aaaaaa; stroke:none;" d="M12.6667 20.3333L13.3333 20.6667L12.6667 20.3333z"/>
<path style="fill:#5b5b5b; stroke:none;" d="M26 20L27 21L26 20z"/>
<path style="fill:#7c7c7c; stroke:none;" d="M28 20L29 21L28 20z"/>
<path style="fill:#aaaaaa; stroke:none;" d="M9 22L10 23L9 22z"/>
<path style="fill:#7c7c7c; stroke:none;" d="M15.6667 22.3333L16.3333 22.6667L15.6667 22.3333z"/>
<path style="fill:#aaaaaa; stroke:none;" d="M21 22L22 23L21 22M23 22L24 23L23 22M25 22L26 23L25 22z"/>
<path style="fill:#7c7c7c; stroke:none;" d="M26 22L26 23L29 23L26 22z"/>
<path style="fill:#aaaaaa; stroke:none;" d="M29 22L30 23L29 22M11 25L12 26L11 25z"/>
<path style="fill:#2c2c2c; stroke:none;" d="M10.6667 26.3333L11.3333 26.6667L10.6667 26.3333z"/>
<path style="fill:#5b5b5b; stroke:none;" d="M12 26L13 27L12 26z"/>
<path style="fill:#2c2c2c; stroke:none;" d="M15 26L14 29L18 30L15 26z"/>
<path style="fill:#5b5b5b; stroke:none;" d="M16 26L17 27L16 26z"/>
<path style="fill:#7c7c7c; stroke:none;" d="M18 26L20 30L18 26z"/>
<path style="fill:#2c2c2c; stroke:none;" d="M19 26L23 29L23 26L22 26L19 26z"/>
<path style="fill:#5b5b5b; stroke:none;" d="M21 26L22 27L21 26z"/>
<path style="fill:#aaaaaa; stroke:none;" d="M23 26L23 30L24 30L23 26z"/>
<path style="fill:#2c2c2c; stroke:none;" d="M24 26L26 30L24 26z"/>
<path style="fill:#5b5b5b; stroke:none;" d="M25 26L26 27L25 26z"/>
<path style="fill:#7c7c7c; stroke:none;" d="M25 27L25 28L30 30L31 29L31 28L30 27L28 26L25 27z"/>
<path style="fill:#2c2c2c; stroke:none;" d="M28 26L28 28L30 26L28 26z"/>
<path style="fill:#aaaaaa; stroke:none;" d="M30 26L31 27L30 26z"/>
<path style="fill:#7c7c7c; stroke:none;" d="M9.66667 27.3333L10.3333 27.6667L9.66667 27.3333z"/>
<path style="fill:#aaaaaa; stroke:none;" d="M11.3333 27.6667L11.6667 28.3333L11.3333 27.6667z"/>
<path style="fill:#7c7c7c; stroke:none;" d="M12 27L13 28L12 27M14 27L15 28L14 27z"/>
<path style="fill:#aaaaaa; stroke:none;" d="M25 28L28 30L27 27L25 28M9 28L10 29L9 28z"/>
<path style="fill:#5b5b5b; stroke:none;" d="M10 28L11 29L10 28z"/>
<path style="fill:#2c2c2c; stroke:none;" d="M12 28L11 30L12 28z"/>
<path style="fill:#aaaaaa; stroke:none;" d="M13.3333 28.6667L13.6667 29.3333L13.3333 28.6667z"/>
<path style="fill:#5b5b5b; stroke:none;" d="M20 28L21 29L20 28z"/>
<path style="fill:#aaaaaa; stroke:none;" d="M21.3333 28.6667L21.6667 29.3333L21.3333 28.6667z"/>
<path style="fill:#5b5b5b; stroke:none;" d="M29 28L30 29L29 28z"/>
<path style="fill:#7c7c7c; stroke:none;" d="M10 29L11 30L10 29M12 29L13 30L12 29z"/>
<path style="fill:#5b5b5b; stroke:none;" d="M14 29L15 30L14 29z"/>
<path style="fill:#aaaaaa; stroke:none;" d="M16 29L17 30L16 29z"/>
<path style="fill:#5b5b5b; stroke:none;" d="M22 29L23 30L22 29M26 29L27 30L26 29M28 29L29 30L28 29z"/>
<path style="fill:#aaaaaa; stroke:none;" d="M30 29L31 30L30 29z"/>
<path style="fill:#7c7c7c; stroke:none;" d="M5 33L6 34L5 33z"/>
<path style="fill:#5b5b5b; stroke:none;" d="M34 33L35 34L34 33M7 34L8 35L7 34z"/>
<path style="fill:#aaaaaa; stroke:none;" d="M8 34L9 35L8 34M15 34L15 35L25 35L15 34M31 34L32 35L31 34z"/>
<path style="fill:#7c7c7c; stroke:none;" d="M32 34L33 35L32 34z"/>
<path style="fill:#5b5b5b; stroke:none;" d="M9 35L10 36L9 35z"/>
<path style="fill:#aaaaaa; stroke:none;" d="M10 35L11 36L10 35z"/>
<path style="fill:#7c7c7c; stroke:none;" d="M16 35L17 36L16 35z"/>
<path style="fill:#5b5b5b; stroke:none;" d="M17 35L18 36L17 35z"/>
<path style="fill:#2c2c2c; stroke:none;" d="M18 35L18 36L22 36L18 35z"/>
<path style="fill:#7c7c7c; stroke:none;" d="M22 35L23 36L22 35z"/>
<path style="fill:#aaaaaa; stroke:none;" d="M29 35L30 36L29 35z"/>
<path style="fill:#7c7c7c; stroke:none;" d="M12 36L13 37L12 36z"/>
<path style="fill:#aaaaaa; stroke:none;" d="M18 36L19 37L18 36z"/>
<path style="fill:#7c7c7c; stroke:none;" d="M19 36L20 37L19 36z"/>
<path style="fill:#aaaaaa; stroke:none;" d="M20 36L21 37L20 36z"/>
<path style="fill:#7c7c7c; stroke:none;" d="M27 36L28 37L27 36z"/>
<path style="fill:#5b5b5b; stroke:none;" d="M14 37L15 38L14 37z"/>
<path style="fill:#aaaaaa; stroke:none;" d="M15 37L16 38L15 37M24 37L25 38L24 37z"/>
<path style="fill:#5b5b5b; stroke:none;" d="M25 37L26 38L25 37M16 38L17 39L16 38z"/>
<path style="fill:#aaaaaa; stroke:none;" d="M17 38L18 39L17 38M22 38L23 39L22 38z"/>
<path style="fill:#5b5b5b; stroke:none;" d="M19 39L20 40L19 39z"/>
<path style="fill:#7c7c7c; stroke:none;" d="M20 39L21 40L20 39z"/>
</svg>
